<svg clip-rule="evenodd" fill-rule="evenodd" height="800" image-rendering="optimizeQuality" shape-rendering="geometricPrecision" text-rendering="geometricPrecision" viewBox="0 0 800 800" width="800" xmlns="http://www.w3.org/2000/svg"><g id="Layer_x0020_1"><circle cx="400" cy="400" fill="#d8ecfe" r="400"/><g id="_447764920"><path d="m617 607h-143c-1 0-28-6-57-12-51 5-145 11-148 11h-85c-15 0-28-12-28-27v-408c0-15 13-27 28-27h433c15 0 27 12 27 27v408c0 15-12 28-27 28z" fill="#deddff"/><path d="m422 631c-19 0-37-8-51-21-14-14-21-32-21-52 0-19 7-37 21-51l44-44c14-14 32-21 51-21 20 0 38 7 52 21 2 2 4 4 5 6 23 29 21 71-5 97l-6 5c-9 10-18 18-25 25 0 1-1 1-1 1l-12 13c-5 4-10 8-16 11-3 3-6 4-6 4-9 4-19 6-30 6z" fill="#46cc6b"/><path d="m426 598c-11 0-22-4-31-12-17-17-17-45 0-61l38-38c17-17 44-17 61 0 16 17 16 44 0 61l-7 6v1l-31 31c-8 8-19 12-30 12z" fill="#deddff"/><path d="m334 656c-20 0-38-8-52-21-13-14-21-32-21-52 0-19 8-37 21-51l44-44c14-14 32-21 52-21 19 0 37 7 51 21l6 6c22 29 20 71-6 97l-5 5c-10 10-18 18-26 25 0 1 0 1-1 1l-12 13c-5 4-10 8-15 11-4 3-6 4-7 4-9 4-19 6-29 6z" fill="#ff993b"/><path d="m337 623c-11 0-22-4-30-12-17-17-17-44 0-61l37-38c17-17 44-17 61 0s17 44 0 61l-6 6-1 1-31 31c-8 8-19 12-30 12z" fill="#deddff"/><g fill="#b4b3cf"><path d="m585 357h-370c-7 0-12-5-12-12v-74c0-7 5-13 12-13l370 1c7 0 13 5 13 12v74c-1 7-6 12-13 12z"/><path d="m591 396h-382c-4 0-6-2-6-6 0-3 2-6 6-6h382c4 0 6 3 6 6 0 4-2 6-6 6z"/><path d="m591 433h-382c-4 0-6-3-6-6s2-6 6-6h382c4 0 6 3 6 6s-2 6-6 6z"/></g><path d="m156 231v-60c0-15 13-27 28-27h433c15 0 27 12 27 27v60z" fill="#5b5e8b"/><path d="m360 207h-156c-5 0-9-4-9-9v-17c0-5 4-10 9-10h156c5 0 10 4 10 10v16c0 6-5 10-10 10z" fill="#312e4b"/><path d="m453 211c-12 0-22-10-22-22s10-21 22-21 21 9 21 21-9 22-21 22z" fill="#ef5350"/><path d="m518 211c-12 0-21-9-21-21s9-22 21-22c6 0 11 3 15 7 5 4 7 9 7 15 0 12-10 21-22 21z" fill="#46cc6b"/><path d="m584 212c-12 0-22-9-22-21s10-22 22-22 21 10 21 22-9 21-21 21z" fill="#ff993b"/></g></g></svg>