<?xml version="1.0" encoding="UTF-8"?>
<svg id="Layer_1" xmlns="http://www.w3.org/2000/svg" version="1.1" viewBox="0 0 512 512">
  <!-- Generator: Adobe Illustrator 30.0.0, SVG Export Plug-In . SVG Version: 2.1.1 Build 123)  -->
  <defs>
    <style>
      .st0 {
        fill: #4d5156;
      }
    </style>
  </defs>
  <path class="st0" d="M256,3.2c-35.4,0-64.1,28.7-64.1,64.1s28.7,64.1,64.1,64.1,64.1-28.7,64.1-64.1S291.4,3.2,256,3.2Z"/>
  <path class="st0" d="M256,191.9c-35.4,0-64.1,28.7-64.1,64.1s28.7,64.1,64.1,64.1,64.1-28.7,64.1-64.1-28.7-64.1-64.1-64.1Z"/>
  <path class="st0" d="M256,380.6c-35.4,0-64.1,28.7-64.1,64.1s28.7,64.1,64.1,64.1,64.1-28.7,64.1-64.1-28.7-64.1-64.1-64.1Z"/>
</svg>