<?xml version="1.0" encoding="UTF-8"?>
<svg id="Layer_7" data-name="Layer 7" xmlns="http://www.w3.org/2000/svg" viewBox="0 0 32 32">
  <defs>
    <style>
      .cls-1 {
        fill: #fff;
      }
    </style>
  </defs>
  <g id="magic_sparkles_" data-name="magic sparkles ">
    <path class="cls-1" d="M30.93,4.91l-2.51-2.51c-.93-.93-2.44-.93-3.37,0h0S2.68,24.77,2.68,24.77c-.93.93-.93,2.44,0,3.37l2.51,2.51c.93.93,2.44.93,3.37,0L30.93,8.27c.93-.92.93-2.43,0-3.36h0ZM22.21,13.37l-2.25-2.25,6.62-6.62,2.25,2.25-6.62,6.63Z"/>
    <path class="cls-1" d="M10.04,7.02h-2.91v-2.91c0-.71-.57-1.29-1.29-1.29s-1.29.57-1.29,1.28v2.91H1.66c-.71,0-1.29.58-1.29,1.29s.57,1.29,1.28,1.29h2.91v2.91c0,.71.57,1.29,1.29,1.29s1.29-.57,1.29-1.29v-2.91h2.91c.71,0,1.29-.57,1.29-1.29,0-.71-.58-1.28-1.29-1.28Z"/>
    <path class="cls-1" d="M30.34,24.57h-2.91v-2.91c0-.71-.57-1.29-1.29-1.29s-1.29.57-1.29,1.29v2.91h-2.91c-.71,0-1.29.57-1.29,1.29s.57,1.29,1.29,1.29h2.91v2.91c0,.71.57,1.29,1.29,1.29s1.29-.57,1.29-1.28v-2.91h2.91c.71,0,1.28-.57,1.29-1.28,0-.73-.57-1.3-1.29-1.3h0Z"/>
    <path class="cls-1" d="M18.04,3.59h-2.03V1.55c0-.49-.4-.9-.9-.9s-.9.4-.9.9v2.03h-2.03c-.49,0-.9.4-.9.9s.4.9.9.9h2.03v2.03c0,.49.4.9.9.9s.9-.4.9-.9v-2.03h2.03c.49,0,.9-.4.9-.9s-.4-.9-.9-.9Z"/>
  </g>
</svg>