<svg clip-rule="evenodd" fill-rule="evenodd" height="850" image-rendering="optimizeQuality" shape-rendering="geometricPrecision" text-rendering="geometricPrecision" viewBox="0 0 850 850" width="850" xmlns="http://www.w3.org/2000/svg"><g id="Layer_x0020_1"><circle cx="425" cy="425" fill="#ff1248" r="425.001"/><g id="_688478528" fill="#fefefe"><path id="_688478600" d="m604.081 628.163c-.179528 0-.364961-.00472441-.54567-.0177166-3.11811-.216142-5.81812-2.25591-6.87284-5.19686-13.0784-36.4181-25.989-42.2445-60.7288-42.2445h-112.291c-26.5559 0-48.156-21.6036-48.156-48.156v-109.223c0-26.5547 21.6036-48.156 48.156-48.156l205.266.0011811c26.5512 0 48.1512 21.6047 48.1512 48.1571v109.223c0 18.4654-10.8307 35.5477-27.5859 43.5154-20.9563 9.96851-21.9484 12.2162-28.4103 26.8429-2.38347 5.39882-5.35394 12.1228-10.0099 21.0307-1.36181 2.60788-4.06181 4.22363-6.97323 4.22363zm24.5977-124.167h-30.2611c-4.35237 0-7.87678-3.52441-7.87678-7.87678s3.52441-7.87678 7.87678-7.87678h30.2611c4.35237 0 7.87678 3.52441 7.87678 7.87678s-3.52441 7.87678-7.87678 7.87678zm0-36.3579h-30.2611c-4.35237 0-7.87678-3.52441-7.87678-7.87678s3.52441-7.87678 7.87678-7.87678h30.2611c4.35237 0 7.87678 3.52441 7.87678 7.87678s-3.52441 7.87678-7.87678 7.87678zm-171.454 36.3579h-30.2563c-4.35237 0-7.87678-3.52441-7.87678-7.87678s3.52441-7.87678 7.87678-7.87678h30.2563c4.35237 0 7.87678 3.52441 7.87678 7.87678s-3.52796 7.87678-7.87678 7.87678zm0-36.3579h-30.2563c-4.35237 0-7.87678-3.52441-7.87678-7.87678s3.52441-7.87678 7.87678-7.87678h30.2563c4.35237 0 7.87678 3.52441 7.87678 7.87678s-3.52796 7.87678-7.87678 7.87678zm27.1465 65.0091c-1.07362 0-2.16614-.225591-3.2126-.689764-3.97087-1.77992-5.74725-6.43583-3.97559-10.4079l9.48899-21.2103c.227953-1.30866.779528-2.5063 1.56851-3.5067l30.8422-68.9398c1.27205-2.83465 4.08544-4.66182 7.19174-4.66182s5.91969 1.8248 7.19174 4.66182l30.8044 68.8489c.790158 1.00158 1.34173 2.19803 1.56969 3.50788l9.53032 21.3c1.77638 3.97205-.00472441 8.63269-3.97559 10.4079-3.97914 1.76457-8.63269-.00472441-10.4079-3.97559l-8.26654-18.4784-52.9193.0720473-8.23347 18.4063c-1.31339 2.92559-4.18937 4.66536-7.19646 4.66536zm61.3052-38.889-19.4008-43.3642-19.4221 43.4185 38.8229-.0543308z"/><path id="_688478144" d="m245.927 474.83c-2.91378 0-5.61378-1.61575-6.97914-4.22244-5.16969-9.88347-8.41772-17.0823-10.7906-22.3394-6.35906-14.0953-6.35906-14.0953-29.6528-26.5512-15.7713-8.43898-25.5626-24.7181-25.5626-42.4949l.0011811-109.225c0-26.5547 21.6036-48.1583 48.156-48.1583h205.263c26.5559 0 48.156 21.6036 48.156 48.1583v89.1733h-50.8749c-35.3835 0-64.1552 28.7705-64.1552 64.1552v3.34607c-2.50748-.124016-4.99607-.252756-7.46457-.382678-9.63662-.50315-18.737-.980316-27.4796-.980316-34.1327 0-57.9473 7.41379-71.1993 44.3032-1.05827 2.94213-3.75355 4.98071-6.87166 5.19804-.184252.0165354-.364961.0200788-.54567.0200788zm179.952-144.167h-20.6374c-4.35237 0-7.87678-3.52441-7.87678-7.87678s3.52441-7.87678 7.87678-7.87678h20.6374c4.34882 0 7.87678 3.52441 7.87678 7.87678s-3.52914 7.87678-7.87678 7.87678zm0-36.352h-20.6374c-4.35237 0-7.87678-3.52441-7.87678-7.87678s3.52441-7.87678 7.87678-7.87678h20.6374c4.34882 0 7.87678 3.52441 7.87678 7.87678s-3.52914 7.87678-7.87678 7.87678zm-183.652 36.352h-20.6386c-4.35355 0-7.87796-3.52441-7.87796-7.87678s3.52441-7.87678 7.87796-7.87678h20.6386c4.35355 0 7.87796 3.52441 7.87796 7.87678s-3.52441 7.87678-7.87796 7.87678zm0-36.352h-20.6386c-4.35355 0-7.87796-3.52441-7.87796-7.87678s3.52441-7.87678 7.87796-7.87678h20.6386c4.35355 0 7.87796 3.52441 7.87796 7.87678s-3.52441 7.87678-7.87796 7.87678zm118.773 66.6993c-.311811 0-.628347-.0200788-.944883-.056693-14.6717-1.75512-26.1036-6.63898-34.93-13.278-8.22048 5.74607-19.7445 10.5236-35.8784 12.1689-.270473.0295276-.542126.0413386-.807875.0413386-3.99095 0-7.41261-3.02362-7.82717-7.08072-.438189-4.32756 2.71181-8.19686 7.03701-8.63505 11.4626-1.16811 19.8236-4.1941 25.9181-7.84371-10.5626-13.4693-14.7638-29.8654-15.5315-42.7996h-18.8634c-4.35237 0-7.87678-3.52441-7.87678-7.87678s3.52441-7.87678 7.87678-7.87678h26.5772.251575 62.302c4.35237 0 7.87678 3.52441 7.87678 7.87678s-3.52677 7.87678-7.87678 7.87678h-54.3686c.66378 8.00434 3.07796 21.0331 11.3315 32.0929 3.57048-5.13898 4.31221-9.33308 4.32756-9.43347.68504-4.29449 4.71851-7.22363 9.01772-6.54331 4.29567.68504 7.22481 4.71851 6.54331 9.01891-.112205.700394-1.54961 8.92442-8.37875 17.8949 6.43583 4.29685 14.6516 7.49764 25.1504 8.75434 4.3193.51378 7.40079 4.43977 6.88465 8.75434-.474804 4.00394-3.8752 6.94489-7.81064 6.94489z"/></g></g></svg>