<?xml version="1.0" encoding="UTF-8"?>
<svg id="Layer_7" data-name="Layer 7" xmlns="http://www.w3.org/2000/svg" viewBox="0 0 32 32">
  <defs>
    <style>
      .cls-1 {
        fill: #fff;
      }
    </style>
  </defs>
  <path class="cls-1" d="M6.62,5.59V1L.99,6.63h4.59c.57,0,1.04-.47,1.04-1.04Z"/>
  <path class="cls-1" d="M5.58,22.61c-.57,0-1.04-.47-1.04-1.04s.47-1.04,1.04-1.04h11.22c-.61-.83-1.1-1.76-1.42-2.78h-5.63c-.57,0-1.04-.47-1.04-1.04s.47-1.04,1.04-1.04h5.24c-.02-.23-.03-.46-.03-.7,0-.72.08-1.42.24-2.08H5.58c-.57,0-1.04-.47-1.04-1.04s.47-1.04,1.04-1.04h10.37c1.54-3.08,4.72-5.21,8.39-5.21v-3.13c0-1.15-.94-2.08-2.08-2.08h-13.54v5.21c0,1.73-1.4,3.13-3.13,3.13H.37v20.84c0,1.15.94,2.08,2.08,2.08h19.79c1.15,0,2.08-.94,2.08-2.08v-5.21c-2.02,0-3.89-.65-5.42-1.74H5.58h0ZM5.58,15.66h.52c.57,0,1.04.47,1.04,1.04s-.47,1.04-1.04,1.04h-.52c-.57,0-1.04-.47-1.04-1.04s.47-1.04,1.04-1.04ZM6.1,27.46h-.52c-.57,0-1.04-.47-1.04-1.04s.47-1.04,1.04-1.04h.52c.57,0,1.04.47,1.04,1.04s-.47,1.04-1.04,1.04ZM20.17,26.42c0,.57-.47,1.04-1.04,1.04h-9.38c-.57,0-1.04-.47-1.04-1.04s.47-1.04,1.04-1.04h9.38c.57,0,1.04.47,1.04,1.04Z"/>
  <path class="cls-1" d="M24.33,7.68c-4.02,0-7.29,3.27-7.29,7.29s3.27,7.29,7.29,7.29,7.29-3.27,7.29-7.29-3.27-7.29-7.29-7.29ZM25.38,19.14c0,.57-.47,1.04-1.04,1.04s-1.04-.47-1.04-1.04v-4.17c0-.57.47-1.04,1.04-1.04s1.04.47,1.04,1.04v4.17ZM25.38,11.32c0,.57-.47,1.04-1.04,1.04s-1.04-.47-1.04-1.04v-.52c0-.57.47-1.04,1.04-1.04s1.04.47,1.04,1.04v.52Z"/>
</svg>