<svg id="Layer_1" enable-background="new 0 0 52 52" viewBox="0 0 52 52" xmlns="http://www.w3.org/2000/svg"><g><g><path d="m32.772 32.428h4.821v6.631h-4.821z" fill="#666" transform="matrix(.707 -.707 .707 .707 -14.97 35.346)"/></g><g><path d="m21.05346 2.71913c-10.42999 0-18.89001 8.46002-18.89001 18.89001s8.46002 18.89001 18.89001 18.89001c10.41998 0 18.88-8.46002 18.88-18.89001s-8.46002-18.89001-18.88-18.89001zm-.00035 31.89502c-7.18555 0-13.00465-5.82841-13.00465-13.00465 0-7.1763 5.81911-12.99535 13.00465-12.99535 7.1763 0 12.99535 5.81905 12.99535 12.99535-.00001 7.17624-5.81906 13.00465-12.99535 13.00465z" fill="#c9eaf5"/></g><g><path d="m47.41041 41.65153-6.99754-6.99754c-.38386-.38386-1.00621-.38386-1.39006 0l-4.93029 4.93029c-.38385.38386-.38385 1.00621 0 1.39006l6.99754 6.99754c1.74532 1.74532 4.57503 1.74532 6.32035 0l.00001-.00001c1.74531-1.74531 1.74531-4.57502-.00001-6.32034z" fill="#c48a57"/></g><g><path d="m47.74809 16.25169v2.80641h-5.59258v-2.80641c0-.44792.36311-.81103.81104-.81103h3.97051c.44792 0 .81103.36311.81103.81103z" fill="#69f"/></g><g><path d="m49.83656 20.58415c0 1.1681-.94693 2.11502-2.11502 2.11502h-19.03495v-4.23004h19.03495c1.16809 0 2.11502.94693 2.11502 2.11502z" fill="#69f"/></g><g><path d="m22.09344 12.52913c-4.45996 0-8.06 3.60999-8.06 8.04999 0 4.46002 3.60004 8.06 8.06 8.06 4.44 0 8.05005-3.59998 8.05005-8.06 0-4.44001-3.61005-8.04999-8.05005-8.04999zm-2.75 10.17004c-1.16998 0-2.12-.94-2.12-2.12006 0-1.15997.95001-2.10999 2.12-2.10999 1.17004 0 2.12.95001 2.12 2.10999-.00001 1.18006-.94996 2.12006-2.12 2.12006z" fill="#69f"/></g><g><path d="m5.28936 17.07673c-.03662 0-.07422-.00537-.11133-.01709-.19775-.06152-.30811-.27148-.24658-.46924 1.64551-5.28906 5.78369-9.43555 11.06934-11.09277.19824-.0625.40771.04785.47021.24561.06201.19775-.04834.4082-.24561.47021-5.05127 1.5835-9.00586 5.5459-10.57813 10.59961-.0498.16065-.19774.26367-.3579.26367z" fill="#fff" opacity=".5"/></g><g><path d="m27.01055 18.66707c-.14111 0-.27637-.08008-.33984-.21631-.82764-1.77393-2.62451-2.91992-4.57715-2.91992-.20703 0-.375-.16797-.375-.375s.16797-.375.375-.375c2.24316 0 4.30664 1.31592 5.25684 3.35254.0874.18799.00635.41113-.18115.49854-.05128.02392-.10548.03515-.1587.03515z" fill="#fff" opacity=".5"/></g></g></svg>