<svg clip-rule="evenodd" fill-rule="evenodd" height="1.707in" image-rendering="optimizeQuality" shape-rendering="geometricPrecision" text-rendering="geometricPrecision" viewBox="0 0 1707 1707" width="1.707in" xmlns="http://www.w3.org/2000/svg"><g id="Layer_x0020_1"><g id="_340501992"><path d="m1274 1706h-841c-54 0-98-44-98-98v-1092c0-54 44-98 98-98h218c11-102 98-181 202-181 105 0 191 79 202 181h219c54 0 98 44 98 98v1092c0 54-44 98-98 98z" fill="#ffa721"/><path d="m853 548c-59 0-107-48-107-107 0-60 48-108 107-108 60 0 108 48 108 108 0 59-48 107-108 107z" fill="#fefefe"/><path d="m853 463c-12 0-22-10-22-22v-418c0-12 10-23 22-23 13 0 23 11 23 23v418c0 12-10 22-23 22z" fill="#333"/><g fill="#fefefe"><path d="m777 1323c-3 0-6-1-8-2-12-4-18-17-14-29l154-409c4-12 17-18 29-13 12 4 18 17 13 29l-153 409c-4 9-12 15-21 15z"/><path d="m1020 1249c-7 0-14-3-19-9-7-10-5-24 5-32l147-113-147-113c-10-7-12-22-5-32 8-9 22-11 32-4l171 131c5 5 9 11 9 18s-4 14-9 18l-171 131c-4 4-9 5-13 5z"/><path d="m687 1249c-5 0-10-1-14-5l-170-131c-6-4-9-11-9-18s3-13 9-18l170-131c10-7 25-5 32 4 8 10 6 25-4 32l-147 113 147 113c10 8 12 22 4 32-4 6-11 9-18 9z"/></g><path d="m1132 671h-558c-12 0-22-11-22-23 0-13 10-23 22-23h558c13 0 23 10 23 23 0 12-10 23-23 23z" fill="#333"/><path d="m1116 1581h-526c-12 0-22-10-22-22v-137c0-12 10-22 22-22h526c13 0 23 10 23 22v137c0 12-10 22-23 22z" fill="#ff3e1a"/><path d="m1132 777h-558c-12 0-22-10-22-22 0-13 10-23 22-23h558c13 0 23 10 23 23 0 12-10 22-23 22z" fill="#333"/></g></g></svg>