<?xml version="1.0" encoding="UTF-8"?>
<svg id="Layer_1" xmlns="http://www.w3.org/2000/svg" version="1.1" viewBox="0 0 519.2 512">
  <!-- Generator: Adobe Illustrator 30.0.0, SVG Export Plug-In . SVG Version: 2.1.1 Build 123)  -->
  <defs>
    <style>
      .st0 {
        fill: #8666c6;
      }

      .st1 {
        fill: #1a1a40;
      }

      .st2 {
        fill: #5e5eef;
      }

      .st3 {
        fill: #7553aa;
      }

      .st4 {
        fill: #7979f7;
      }

      .st5 {
        fill: #e7e7e7;
      }

      .st6 {
        fill: #f3f3f3;
      }
    </style>
  </defs>
  <g id="b">
    <path class="st0" d="M393.5,38.3l95.4,172.7c11.3,20.4,3.8,46.2-16.6,57.5l-257.4,142.2c-9,5.1-19.6,6.5-29.7,4.2l-137.6-31c-7.9-1.8-14.5-6.8-18.5-13.8l-15.1-27.2c-3.9-7-4.7-15.4-2-23l46.9-132.9c3.4-9.7,10.4-17.9,19.5-23L336.1,21.7c20.4-11.3,46.2-3.8,57.5,16.6h-.1Z"/>
    <path class="st3" d="M487.4,234.7v20c-3.7,5.5-8.7,10.3-14.9,13.8l-257.4,142.2c-9,4.9-19.7,6.5-29.7,4.2l-137.6-31c-7.9-1.8-14.5-6.9-18.5-14l-15.1-27.2c-3.8-7-4.5-15.4-1.8-23l9.4-26.9,101.2-89.8c7.8-6.9,17.8-10.7,28.1-10.7h294c23.4,0,42.3,18.9,42.3,42.3h0Z"/>
    <path class="st4" d="M508.5,255.9v197.3c0,23.4-18.9,42.3-42.3,42.3H172.2c-10.3,0-20.3-3.8-28.1-10.7l-105.4-93.7c-6.1-5.4-9.4-13-9.4-21v-31c0-8,3.4-15.8,9.4-21l105.4-93.7c7.8-6.9,17.8-10.7,28.1-10.7h294c23.4,0,42.3,18.9,42.3,42.3h0Z"/>
    <path class="st2" d="M508.5,255.9v197.3c0,23.4-18.9,42.3-42.3,42.3H172.2c-10.3,0-20.3-3.8-28.1-10.7l-105.4-93.6c-2.5-2.3-4.5-4.8-6.1-7.8l90.4,80.2c7.8,6.9,17.8,10.7,28.1,10.7h294c23.4,0,42.3-18.9,42.3-42.3v-197.3c0-6.2-1.4-12.1-3.8-17.3,14.7,6.5,25,21.3,25,38.5Z"/>
    <g>
      <path class="st6" d="M262.3,453.2h-13.8c-8.6,0-15.2-7.6-14-16.1l24.1-169.2c1-6.9,6.9-12.1,14-12.1h13.8c8.6,0,15.2,7.6,14,16.1l-24.1,169.2c-1,6.9-6.9,12.1-14,12.1Z"/>
      <path class="st6" d="M361.1,453.2h-13.8c-8.6,0-15.2-7.6-14-16.1l24.1-169.2c1-6.9,7-12.1,14-12.1h14c8.6,0,15.1,7.6,14,16.1l-24.4,169c-1,6.9-6.9,12.1-14,12.1h.1Z"/>
      <path class="st6" d="M422,313.8l1.8-13.7c1.1-8.5-5.5-15.6-14.1-15.5h-170.8c-7,0-13,5.6-14,12.7l-1.8,13.7c-1.1,8.5,5.5,15.6,14.1,15.5h170.8c7,0,13-5.6,14-12.7h0Z"/>
      <path class="st6" d="M408.4,411.6l1.8-13.7c1.1-8.5-5.5-15.6-14.1-15.5h-170.8c-7,0-13,5.8-14,12.7l-1.8,14c-1.1,8.5,5.5,15.5,14.1,15.4h170.7c7,0,13-5.8,13.8-12.7h.3Z"/>
    </g>
    <circle class="st5" cx="85.6" cy="354.5" r="28.2"/>
    <g>
      <path class="st1" d="M459.2,326.3v56.4c0,3.9,3.1,7,7,7s7-3.1,7-7v-56.4c0-3.9-3.1-7-7-7s-7,3.1-7,7Z"/>
      <path class="st1" d="M142,136c2.7,0,3.1-.7,19.7-9.9,3.4-1.8,4.7-6.2,2.8-9.6s-6.2-4.7-9.6-2.8l-16.4,9c-6.3,3.5-3.8,13.3,3.4,13.3Z"/>
      <path class="st1" d="M508.5,404.7c3.9,0,7-3.1,7-7v-141.8c0-14.2-6.2-26.9-15.8-35.9-2.4-9.6,4.1,3.5-100.1-184.9-13.1-23.8-43.3-32.6-67.1-19.3l-151.8,83.9c-3.4,1.8-4.7,6.2-2.8,9.6s6.2,4.7,9.6,2.8L339.4,28.1c17.1-9.4,38.5-3.2,47.9,13.8l92.2,166.8c-10.4-3,15.1-2.1-307.3-2.1s-23.7,4.4-32.8,12.4l-105.4,93.7c-7.5,6.6-11.8,16.2-11.8,26.4v3.7l-1.8-3.2c-3-5.2-3.4-11.6-1.4-17.2l46.9-132.9c2.8-8.2,8.6-14.9,16.2-19.2l35.1-19.5c3.4-1.8,4.7-6.2,2.8-9.6s-6.2-4.7-9.6-2.8l-35.1,19.5c-10.6,5.8-18.6,15.4-22.7,26.8L5.6,317.5c-3.4,9.4-2.4,20,2.4,28.8l14.4,26.1c.6,9.2,4.7,17.9,11.6,24.1l105.4,93.7c9,8,20.7,12.4,32.8,12.4h294c27.2,0,49.3-22.1,49.3-49.3v-28.9c0-3.9-3.1-7-7-7s-7,3.1-7,7v28.9c0,19.5-15.8,35.2-35.2,35.2H172.2c-8.6,0-16.9-3.1-23.4-8.9l-105.4-93.7c-4.5-3.9-7-9.7-7-15.8v-31c0-6.1,2.5-11.8,7-15.8l105.4-93.7c6.5-5.8,14.8-8.9,23.4-8.9h294c19.5,0,35.2,15.8,35.2,35.2v141.8c0,3.9,3.1,7,7,7h0Z"/>
      <path class="st1" d="M50.4,354.5c0,19.5,15.8,35.2,35.2,35.2s35.2-15.8,35.2-35.2-15.8-35.2-35.2-35.2-35.2,15.8-35.2,35.2ZM106.8,354.5c0,11.7-9.4,21.1-21.1,21.1s-21.1-9.4-21.1-21.1,9.4-21.1,21.1-21.1,21.1,9.4,21.1,21.1Z"/>
      <path class="st1" d="M349.1,319.4h-56.4c-3.5,0-6.5,2.5-7,6.1-8.5,59.6-9.3,58.1-6.3,61.5s1.6,2.4,61.7,2.4,6.5-2.5,7-6.1l8-55.8c.6-4.2-2.7-8-7-8h0ZM335,375.2h-42.1l5.9-41.7h42.1l-5.9,41.7Z"/>
      <path class="st1" d="M408.2,333.5c10.4,0,19.3-8,20.9-18.7l1.8-13.7c1.7-12.7-8-23.5-21-23.5h-4.2l.7-4.5c1.8-12.7-8-24.1-20.9-24.2h-14c-15.9,0-20.4,14.2-21,18.2l-1.6,10.6h-42.1l.7-4.7c1.8-12.8-8.2-24.1-20.9-24.1h-13.8c-10.4,0-19.5,7.8-21,18.2l-1.6,10.6h-11.4c-10.4,0-19.5,8.2-20.9,18.7-2.1,14.9-4.2,21.8,3,30,6.6,7.6,14.4,7.2,21.1,7.2l-5.9,41.7h-10.7c-10.4,0-19.5,8.2-20.9,18.9l-1.8,13.8c-.8,5.9,1,11.8,4.9,16.2,7.6,8.7,16.5,7.2,20.6,7.2l-.7,4.7c-1.8,12.7,8,24.1,21,24.1h13.8c10.4,0,19.5-7.8,21-18.2l1.6-10.7h42.1l-.7,4.7c-1.8,12.7,8,24.1,21,24.1h13.8c10.4,0,19.5-7.8,21-18.2l1.6-10.7h11.1c10.4,0,19.3-8.2,20.9-18.7l1.8-13.7c1.8-12.7-8.2-23.5-20.9-23.5h-4.9l6.1-41.7h10.6-.3ZM378.1,386.9c4.9,5.8,18.7-1,23.8,4.8,2.7,3.1,1.4,6.2-.4,18.9-.6,3.7-3.7,6.6-6.9,6.6h-17.2c-3.5,0-6.5,2.5-7,6.1l-2.4,16.8c-.6,3.4-3.5,6.1-7,6.1h-13.8c-4.2,0-7.6-3.8-7-8,1.8-12.5,3-15.1.1-18.3-3-3.4-1.6-2.4-61.7-2.4s-6.5,2.5-7,6.1l-2.4,16.8c-.6,3.4-3.5,6.1-7,6.1h-13.8c-4.2,0-7.6-3.8-7-8,1.8-12.5,3-15.1.1-18.3-4.9-5.8-18.5.8-23.4-4.8-2.5-2.8-1.6-4.5.3-18.9.6-3.7,3.7-6.6,6.9-6.6h16.9c3.5,0,6.5-2.5,7-6.1l8-55.8c.6-4.2-2.7-8-7-8-14.9,0-16.1.7-18.7-2.4-2.5-2.8-1.6-4.5.4-18.9.6-3.5,3.7-6.5,6.9-6.5h17.5c3.5,0,6.5-2.5,7-6.1l2.4-16.6c.6-3.4,3.5-6.1,7-6.1h13.8c4.4,0,7.6,3.8,6.9,8-1.7,11.7-3,14.9-.1,18.3,3,3.4,1.6,2.4,61.7,2.4s6.5-2.5,7-6.1l2.4-16.6c.4-2.7,2.7-6.1,7-6.1,14.1,0,16.5-.8,19.3,2.4,2.5,3,1.8,3.9-.1,18.2-.6,4.2,2.7,8,7,8,11.7,0,15.1-.8,17.8,2.4,2.7,3.1,1.4,6.2-.4,18.9-.6,3.7-3.7,6.5-6.9,6.5h-16.6c-3.5,0-6.5,2.5-7,6.1-8.6,59.5-9.3,58.1-6.3,61.5h.1Z"/>
    </g>
  </g>
</svg>