<?xml version="1.0" encoding="UTF-8"?>
<svg id="Layer_7" data-name="Layer 7" xmlns="http://www.w3.org/2000/svg" viewBox="0 0 32 32">
  <defs>
    <style>
      .cls-1 {
        fill: #fff;
      }
    </style>
  </defs>
  <path class="cls-1" d="M30.83,20.88l-13.22-4.81c-.43-.16-.93-.05-1.26.28s-.44.82-.28,1.26l4.81,13.22c.17.47.61.78,1.11.79h.02c.49,0,.94-.3,1.12-.76l1.73-4.32,3.52,3.52c.24.24.54.35.85.35s.61-.12.85-.35c.47-.47.47-1.23,0-1.69l-3.52-3.52,4.32-1.73c.46-.18.76-.64.76-1.13s-.32-.94-.79-1.11h-.01Z"/>
  <path class="cls-1" d="M18.42,13.81l.32.12c.54-1.2.85-2.54.85-3.94C19.6,4.69,15.28.37,9.98.37S.37,4.69.37,9.99s4.32,9.62,9.62,9.62c1.41,0,2.74-.31,3.94-.85l-.12-.31c-.48-1.31-.14-2.8.84-3.79s2.46-1.31,3.77-.84ZM13.46,8.13l-2.4,4.81c-.17.35-.5.59-.88.65-.06,0-.13.01-.19.01-.31,0-.63-.12-.85-.35l-2.4-2.4c-.47-.47-.47-1.23,0-1.69.47-.47,1.23-.47,1.69,0l1.23,1.23,1.66-3.32c.3-.59,1.02-.83,1.61-.54.59.3.83,1.02.54,1.61Z"/>
</svg>