<svg xmlns="http://www.w3.org/2000/svg" version="1.1" xmlns:xlink="http://www.w3.org/1999/xlink" width="512" height="512" x="0" y="0" viewBox="0 0 100 100" style="enable-background:new 0 0 512 512" xml:space="preserve"><g><path d="M50 12c9.348 0 18.139 3.37 25.08 9.5h-6.067a4.75 4.75 0 0 0 0 9.5H83.25A4.75 4.75 0 0 0 88 26.25V12.013a4.75 4.75 0 0 0-9.5 0v.063C70.317 5.895 60.437 2.5 50 2.5 25.6 2.5 5.444 20.985 2.795 44.688 2.479 47.516 4.672 50 7.517 50h.002c2.436 0 4.447-1.849 4.72-4.27C14.367 26.78 30.492 12 50 12zM92.481 50c-2.436 0-4.447 1.849-4.72 4.27C85.633 73.22 69.508 88 50 88c-9.323 0-18.139-3.37-25.08-9.5h6.067a4.75 4.75 0 1 0 0-9.5H16.75A4.75 4.75 0 0 0 12 73.75v14.263a4.75 4.75 0 0 0 9.5 0v-.064C29.683 94.131 39.563 97.5 50 97.5c24.4 0 44.556-18.485 47.205-42.188.316-2.828-1.877-5.312-4.722-5.312z" fill="#ffffff" opacity="1" data-original="#000000"></path></g></svg>