<?xml version="1.0" encoding="UTF-8"?>
<svg id="Layer_7" data-name="Layer 7" xmlns="http://www.w3.org/2000/svg" viewBox="0 0 32 32">
  <defs>
    <style>
      .cls-1 {
        fill: #fff;
      }
    </style>
  </defs>
  <path class="cls-1" d="M2.85,21.62h7.81c.08,1.46.62,2.59,1.63,3.37,1.01.78,2.36,1.17,4.05,1.17,1.58,0,2.77-.3,3.58-.9.81-.6,1.21-1.38,1.21-2.36s-.5-1.8-1.5-2.38c-1-.58-2.6-1.1-4.8-1.55-7.34-1.54-11.01-4.66-11.01-9.36,0-2.74,1.14-5.03,3.41-6.86C9.5.92,12.47,0,16.14,0c3.92,0,7.05.92,9.4,2.77,2.35,1.84,3.52,4.24,3.52,7.19h-8.24c0-1.18-.38-2.15-1.14-2.93-.76-.77-1.95-1.15-3.57-1.15-1.39,0-2.46.31-3.22.94-.76.63-1.14,1.43-1.14,2.39,0,.91.43,1.65,1.3,2.21s2.33,1.05,4.38,1.46c2.05.41,3.78.87,5.19,1.38,4.36,1.6,6.53,4.37,6.53,8.3,0,2.82-1.21,5.09-3.62,6.83-2.42,1.74-5.54,2.61-9.35,2.61-2.59,0-4.88-.46-6.89-1.38-2.01-.92-3.58-2.19-4.72-3.79-1.14-1.61-1.71-3.34-1.71-5.2Z"/>
</svg>