<svg clip-rule="evenodd" fill-rule="evenodd" height="1.707in" image-rendering="optimizeQuality" shape-rendering="geometricPrecision" text-rendering="geometricPrecision" viewBox="0 0 1707 1707" width="1.707in" xmlns="http://www.w3.org/2000/svg"><g id="Layer_x0020_1"><g id="_523548032"><path d="m853 856c-11 0-20-9-20-20v-302c0-11 9-20 20-20s20 9 20 20v302c0 11-9 20-20 20z" fill="#40596b"/><path d="m310 172c-19 0-35 15-35 35v273c0 19 16 34 35 34h1085c19 0 35-15 35-34v-273c0-20-16-35-35-35z"/><path d="m1395 554h-1085c-41 0-75-33-75-74v-273c0-42 34-75 75-75h1085c41 0 75 33 75 75v273c0 41-34 74-75 74z" fill="#ef5261"/><path d="m708 856c-19 0-35 15-35 34v274c0 19 16 34 35 34h291c19 0 35-15 35-34v-274c0-19-16-34-35-34z"/><path d="m1469 1192c-11 0-20-9-20-20v-125h-395c-11 0-20-9-20-20s9-20 20-20h415c11 0 20 9 20 20v145c0 11-9 20-20 20zm-1254-2c-11 0-20-9-20-20v-143c0-11 9-20 20-20h438c11 0 20 9 20 20s-9 20-20 20h-418v123c0 11-9 20-20 20z" fill="#40596b"/><path d="m75 1190c-19 0-35 15-35 35v273c0 19 16 34 35 34h291c19 0 35-15 35-34v-273c0-20-16-35-35-35z"/><path d="m366 1572h-291c-41 0-75-33-75-74v-273c0-42 34-75 75-75h291c41 0 75 33 75 75v273c0 41-34 74-75 74z" fill="#96de62"/><path d="m1341 1192c-20 0-35 16-35 35v273c0 19 15 35 35 35h291c19 0 35-16 35-35v-273c0-19-16-35-35-35z"/><path d="m1632 1575h-291c-42 0-75-34-75-75v-273c0-41 33-75 75-75h291c41 0 75 34 75 75v273c0 41-34 75-75 75z" fill="#f6c863"/><g fill="#b84450"><path d="m1097 279h-489c-11 0-20-9-20-20s9-20 20-20h489c11 0 20 9 20 20s-9 20-20 20z"/><path d="m1097 363h-489c-11 0-20-9-20-20s9-20 20-20h489c11 0 20 9 20 20s-9 20-20 20z"/><path d="m1097 447h-489c-11 0-20-9-20-20s9-20 20-20h489c11 0 20 9 20 20s-9 20-20 20z"/></g><path d="m999 1238h-291c-42 0-75-33-75-74v-274c0-41 33-74 75-74h291c41 0 75 33 75 74v274c0 41-34 74-75 74z" fill="#6bb7ed"/></g></g></svg>